<svg xmlns="http://www.w3.org/2000/svg" viewBox="0 0 1075.96 1754.03"><defs><style>.cls-1{fill:#8891b0;}.cls-2{fill:#62678f;}.cls-3{fill:#454a74;}.cls-4{fill:#63688f;}</style></defs><g id="レイヤー_2" data-name="レイヤー 2"><g id="レイヤー_1-2" data-name="レイヤー 1"><path class="cls-1" d="M.13,893.93C173.76,605.71,533.39,8.13,539,0c-.32,2.24-1.05,434.14-1.08,647.85C481.58,673.41-.72,895.33.13,893.93Z"/><path class="cls-2" d="M537.9,647.85c0-213.71.76-645.61,1.08-647.85,178.5,296.13,536.49,890.79,537,892C1075.32,891.82,537.9,647.85,537.9,647.85Z"/><path class="cls-2" d="M0,894c21.1-10.2,481.58-220.58,537.9-246.14,0,0,.17,376,.15,563.92C461.85,1166.85,103.15,955,0,894Z"/><path class="cls-3" d="M538.05,1211.77q0-281.85-.15-563.92C716.55,729,1075.32,891.82,1076,892,1064.92,899.18,538.81,1211.48,538.05,1211.77Z"/><path class="cls-4" d="M537.86,1314.72c176.71-104.34,535.27-315.56,537.84-316.84-1.4,2.2-359.16,506.3-536.64,756.15C538.71,1751.8,537.91,1458.93,537.86,1314.72Z"/><path class="cls-1" d="M537.86,1314.72c0,144.21.85,437.08,1.2,439.31C533,1746.62,6.68,1006.33,1.24,998.52,9.4,1003.15,367.15,1214,537.86,1314.72Z"/></g></g></svg>